# xmcd
#
# Track frame offsets: 
#        150
#        18385
#        37610
#        58302
#        76135
#        95365
#        113055
#        130067
#        149735
#        168797
#        187985
#        206245
#        222607
#        241507
#        259287
#        278952
#        305895
#
# Disc length: 4279 seconds
#
# Revision: 12
# Processed by: cddbd v1.5.2PL0 Copyright (c) Steve Scherf et al.
# Submitted via: ExactAudioCopy v0.99pb5
#
DISCID=f510b511
DTITLE=T - TO MY LOVE
DYEAR=2002
DGENRE=KOREAN POP
TTITLE0=Unfrogettable
TTITLE1=To my love
TTITLE2=Tuesday
TTITLE3=선물
TTITLE4=To my love (English ver.)
TTITLE5=끝없는 바다 저 편에
TTITLE6=One day
TTITLE7=Because I love you (With Bobby Kim)
TTITLE8=집으로 와
TTITLE9=나는
TTITLE10=인연
TTITLE11=Why me?
TTITLE12=Gatta get love
TTITLE13=찬바람아!
TTITLE14=Because I love you (English ver.)
TTITLE15=너 (Sad but True)
TTITLE16=Data Track
EXTD=YEAR: 2002
EXTT0=
EXTT1=
EXTT2=
EXTT3=
EXTT4=
EXTT5=
EXTT6=
EXTT7=
EXTT8=
EXTT9=
EXTT10=
EXTT11=
EXTT12=
EXTT13=
EXTT14=
EXTT15=
EXTT16=
PLAYORDER=
